<svg version="1.2" xmlns="http://www.w3.org/2000/svg" viewBox="0 0 130 20" width="130" height="20">
	<title>registry-lib-svg</title>
	<defs>
		<clipPath clipPathUnits="userSpaceOnUse" id="cp1">
			<path d="m0 3c0-1.66 1.34-3 3-3h124c1.66 0 3 1.34 3 3v14c0 1.66-1.34 3-3 3h-124c-1.66 0-3-1.34-3-3z"/>
		</clipPath>
		<linearGradient id="g1" x1="0" y1="0" x2="0" y2="400" gradientUnits="userSpaceOnUse">
			<stop offset="0" stop-color="#bbbbbb" stop-opacity=".1"/>
			<stop offset="1" stop-color="#000000" stop-opacity=".1"/>
		</linearGradient>
	</defs>
	<style>
		.s0 { fill: #555555 } 
		.s1 { fill: #e05d44 } 
		.s2 { fill: url(#g1) } 
		.s3 { opacity: .3;fill: #010101 } 
		.s4 { fill: #ffffff } 
	</style>
	<g id="Clip-Path" clip-path="url(#cp1)">
		<g id="Layer">
			<path id="Layer" class="s0" d="m0 0h48v20h-48z"/>
			<path id="Layer" class="s1" d="m48 0h82v20h-82z"/>
			<path id="Layer" class="s2" d="m0 0h130v20h-130z"/>
		</g>
	</g>
	<g id="Layer">
		<path id="maven" class="s3" aria-label="maven"  d="m11.9 10.1q0.3-0.6 0.9-0.9 0.5-0.4 1.2-0.4 0.9 0 1.4 0.7 0.5 0.7 0.5 1.9v3.6h-1v-3.6q0-0.9-0.3-1.3-0.3-0.4-0.9-0.4-0.8 0-1.2 0.5-0.5 0.5-0.5 1.4v3.4h-1v-3.6q0-0.9-0.3-1.3-0.3-0.4-0.9-0.4-0.8 0-1.2 0.5-0.5 0.5-0.5 1.4v3.4h-1v-6h1v0.9q0.4-0.5 0.9-0.8 0.4-0.3 1.1-0.3 0.6 0 1.1 0.4 0.4 0.3 0.7 0.9zm9.7 1.9h-1q-1.2 0-1.6 0.3-0.5 0.2-0.5 0.9 0 0.5 0.4 0.8 0.3 0.3 0.9 0.3 0.8 0 1.3-0.6 0.5-0.5 0.5-1.5zm1-0.4v3.4h-1v-0.9q-0.3 0.6-0.8 0.8-0.5 0.3-1.3 0.3-0.9 0-1.4-0.5-0.6-0.6-0.6-1.4 0-1 0.7-1.6 0.7-0.5 2-0.5h1.4v-0.1q0-0.7-0.4-1-0.5-0.4-1.3-0.4-0.5 0-1 0.1-0.5 0.1-0.9 0.4v-0.9q0.5-0.2 1-0.3 0.5-0.1 1-0.1 1.3 0 2 0.6 0.6 0.7 0.6 2.1zm3.6 3.4l-2.3-6h1.1l1.9 5.1 1.8-5.1h1.1l-2.3 6zm10.1-3.2v0.4h-4.5q0.1 1.1 0.6 1.6 0.6 0.5 1.5 0.5 0.6 0 1.1-0.1 0.6-0.1 1.1-0.4v0.9q-0.5 0.2-1.1 0.4-0.5 0.1-1.1 0.1-1.5 0-2.3-0.9-0.8-0.8-0.8-2.2 0-1.5 0.8-2.4 0.8-0.8 2.1-0.8 1.2 0 1.9 0.7 0.7 0.8 0.7 2.2zm-4.5-0.3h3.5q0-0.8-0.4-1.3-0.4-0.5-1.2-0.5-0.8 0-1.3 0.5-0.5 0.4-0.6 1.3zm11.2-0.1v3.6h-1v-3.6q0-0.8-0.4-1.3-0.3-0.4-1-0.4-0.8 0-1.2 0.5-0.5 0.5-0.5 1.4v3.4h-1v-6h1v0.9q0.4-0.5 0.8-0.8 0.5-0.2 1.2-0.2 1 0 1.5 0.6 0.6 0.6 0.6 1.9z"/>
		<path id="maven" class="s4" aria-label="maven"  d="m11.9 9.1q0.3-0.6 0.9-0.9 0.5-0.4 1.2-0.4 0.9 0 1.4 0.7 0.5 0.7 0.5 1.9v3.6h-1v-3.6q0-0.9-0.3-1.3-0.3-0.4-0.9-0.4-0.8 0-1.2 0.5-0.5 0.5-0.5 1.4v3.4h-1v-3.6q0-0.9-0.3-1.3-0.3-0.4-0.9-0.4-0.8 0-1.2 0.5-0.5 0.5-0.5 1.4v3.4h-1v-6h1v0.9q0.4-0.5 0.9-0.8 0.4-0.3 1.1-0.3 0.6 0 1.1 0.4 0.4 0.3 0.7 0.9zm9.7 1.9h-1q-1.2 0-1.6 0.3-0.5 0.2-0.5 0.9 0 0.5 0.4 0.8 0.3 0.3 0.9 0.3 0.8 0 1.3-0.6 0.5-0.5 0.5-1.5zm1-0.4v3.4h-1v-0.9q-0.3 0.6-0.8 0.8-0.5 0.3-1.3 0.3-0.9 0-1.4-0.5-0.6-0.6-0.6-1.4 0-1 0.7-1.6 0.7-0.5 2-0.5h1.4v-0.1q0-0.7-0.4-1-0.5-0.4-1.3-0.4-0.5 0-1 0.1-0.5 0.1-0.9 0.4v-0.9q0.5-0.2 1-0.3 0.5-0.1 1-0.1 1.3 0 2 0.6 0.6 0.7 0.6 2.1zm3.6 3.4l-2.3-6h1.1l1.9 5.1 1.8-5.1h1.1l-2.3 6zm10.1-3.2v0.4h-4.5q0.1 1.1 0.6 1.6 0.6 0.5 1.5 0.5 0.6 0 1.1-0.1 0.6-0.1 1.1-0.4v0.9q-0.5 0.2-1.1 0.4-0.5 0.1-1.1 0.1-1.5 0-2.3-0.9-0.8-0.8-0.8-2.2 0-1.5 0.8-2.4 0.8-0.8 2.1-0.8 1.2 0 1.9 0.7 0.7 0.8 0.7 2.2zm-4.5-0.3h3.5q0-0.8-0.4-1.3-0.4-0.5-1.2-0.5-0.8 0-1.3 0.5-0.5 0.4-0.6 1.3zm11.2-0.1v3.6h-1v-3.6q0-0.8-0.4-1.3-0.3-0.4-1-0.4-0.8 0-1.2 0.5-0.5 0.5-0.5 1.4v3.4h-1v-6h1v0.9q0.4-0.5 0.8-0.8 0.5-0.2 1.2-0.2 1 0 1.5 0.6 0.6 0.6 0.6 1.9z"/>
		<path id=" 1.19.2-1.0.1" class="s3" aria-label=" 1.19.2-1.0.1"  d="m57.6 15v-0.9h1.8v-6.1l-1.9 0.4v-1l1.9-0.4h1.1v7.1h1.8v0.9zm6.8 0v-1.4h1.1v1.4zm3.7 0v-0.9h1.8v-6.1l-2 0.4v-1l1.9-0.4h1.1v7.1h1.8v0.9zm6.8-0.2v-1q0.5 0.2 0.9 0.3 0.4 0.1 0.8 0.1 1.1 0 1.6-0.7 0.6-0.7 0.7-2.2-0.3 0.5-0.8 0.7-0.5 0.3-1.1 0.3-1.2 0-1.9-0.7-0.7-0.8-0.7-2 0-1.3 0.8-2 0.7-0.8 1.9-0.8 1.4 0 2.1 1.1 0.8 1.1 0.8 3.1 0 1.9-0.9 3-0.9 1.2-2.5 1.2-0.4 0-0.8-0.1-0.4-0.1-0.9-0.3zm2.2-3.4q0.7 0 1.2-0.5 0.4-0.5 0.4-1.3 0-0.9-0.4-1.4-0.5-0.5-1.2-0.5-0.7 0-1.2 0.5-0.4 0.5-0.4 1.4 0 0.8 0.4 1.3 0.5 0.5 1.2 0.5zm4.8 3.6v-1.4h1.1v1.4zm4.5-0.9h3.8v0.9h-5.1v-0.9q0.6-0.7 1.7-1.7 1-1.1 1.3-1.4 0.5-0.6 0.7-1 0.2-0.4 0.2-0.8 0-0.6-0.4-1-0.5-0.5-1.2-0.5-0.5 0-1.1 0.2-0.5 0.2-1.2 0.6v-1.1q0.7-0.3 1.3-0.4 0.5-0.2 1-0.2 1.2 0 2 0.7 0.7 0.6 0.7 1.6 0 0.5-0.2 1-0.1 0.4-0.6 1-0.2 0.2-0.9 0.9-0.7 0.7-2 2.1zm5.4-1.7v-0.9h2.9v0.9zm4.8 2.6v-0.9h1.8v-6.1l-2 0.4v-1l2-0.4h1v7.1h1.8v0.9zm6.8 0v-1.4h1.2v1.4zm5.8-7.3q-0.9 0-1.3 0.8-0.4 0.8-0.4 2.5 0 1.6 0.4 2.5 0.4 0.8 1.3 0.8 0.8 0 1.2-0.8 0.5-0.9 0.5-2.5 0-1.7-0.5-2.5-0.4-0.8-1.2-0.8zm0-0.9q1.3 0 2 1.1 0.7 1.1 0.7 3.1 0 2-0.7 3.1-0.7 1.1-2 1.1-1.4 0-2.1-1.1-0.7-1.1-0.7-3.1 0-2 0.7-3.1 0.7-1.1 2.1-1.1zm4.7 8.2v-1.4h1.1v1.4zm3.7 0v-0.9h1.7v-6.1l-1.9 0.4v-1l1.9-0.4h1.1v7.1h1.8v0.9z"/>
		<path id=" 1.19.2-1.0.1" class="s4" aria-label=" 1.19.2-1.0.1"  d="m57.6 14v-0.9h1.8v-6.1l-1.9 0.4v-1l1.9-0.4h1.1v7.1h1.8v0.9zm6.8 0v-1.4h1.1v1.4zm3.7 0v-0.9h1.8v-6.1l-2 0.4v-1l1.9-0.4h1.1v7.1h1.8v0.9zm6.8-0.2v-1q0.5 0.2 0.9 0.3 0.4 0.1 0.8 0.1 1.1 0 1.6-0.7 0.6-0.7 0.7-2.2-0.3 0.5-0.8 0.7-0.5 0.3-1.1 0.3-1.2 0-1.9-0.7-0.7-0.8-0.7-2 0-1.3 0.8-2 0.7-0.8 1.9-0.8 1.4 0 2.1 1.1 0.8 1.1 0.8 3.1 0 1.9-0.9 3-0.9 1.2-2.5 1.2-0.4 0-0.8-0.1-0.4-0.1-0.9-0.3zm2.2-3.4q0.7 0 1.2-0.5 0.4-0.5 0.4-1.3 0-0.9-0.4-1.4-0.5-0.5-1.2-0.5-0.7 0-1.2 0.5-0.4 0.5-0.4 1.4 0 0.8 0.4 1.3 0.5 0.5 1.2 0.5zm4.8 3.6v-1.4h1.1v1.4zm4.5-0.9h3.8v0.9h-5.1v-0.9q0.6-0.7 1.7-1.7 1-1.1 1.3-1.4 0.5-0.6 0.7-1 0.2-0.4 0.2-0.8 0-0.6-0.4-1-0.5-0.5-1.2-0.5-0.5 0-1.1 0.2-0.5 0.2-1.2 0.6v-1.1q0.7-0.3 1.3-0.4 0.5-0.2 1-0.2 1.2 0 2 0.7 0.7 0.6 0.7 1.6 0 0.5-0.2 1-0.1 0.4-0.6 1-0.2 0.2-0.9 0.9-0.7 0.7-2 2.1zm5.4-1.7v-0.9h2.9v0.9zm4.8 2.6v-0.9h1.8v-6.1l-2 0.4v-1l2-0.4h1v7.1h1.8v0.9zm6.8 0v-1.4h1.2v1.4zm5.8-7.3q-0.9 0-1.3 0.8-0.4 0.8-0.4 2.5 0 1.6 0.4 2.5 0.4 0.8 1.3 0.8 0.8 0 1.2-0.8 0.5-0.9 0.5-2.5 0-1.7-0.5-2.5-0.4-0.8-1.2-0.8zm0-0.9q1.3 0 2 1.1 0.7 1.1 0.7 3.1 0 2-0.7 3.1-0.7 1.1-2 1.1-1.4 0-2.1-1.1-0.7-1.1-0.7-3.1 0-2 0.7-3.1 0.7-1.1 2.1-1.1zm4.7 8.2v-1.4h1.1v1.4zm3.7 0v-0.9h1.7v-6.1l-1.9 0.4v-1l1.9-0.4h1.1v7.1h1.8v0.9z"/>
	</g>
</svg>